<svg id="Swimming" xmlns="http://www.w3.org/2000/svg" xmlns:xlink="http://www.w3.org/1999/xlink" viewBox="0 0 32 32"><defs><style>.cls-1{fill:url(#Unbenannter_Verlauf_12);}.cls-2,.cls-3,.cls-4{fill:none;stroke:#fff;stroke-miterlimit:10;}.cls-3,.cls-4{stroke-linecap:round;}.cls-4{stroke-width:0.9px;}</style><linearGradient id="Unbenannter_Verlauf_12" y1="16" x2="32" y2="16" gradientUnits="userSpaceOnUse"><stop offset="0" stop-color="#47735b"/><stop offset="0.23" stop-color="#507c60"/><stop offset="0.6" stop-color="#69966d"/><stop offset="0.99" stop-color="#8ab87f"/></linearGradient></defs><title>Baden</title><rect class="cls-1" width="32" height="32" rx="4.25" ry="4.25"/><path class="cls-2" d="M60.3,19.85a7.7,7.7,0,0,1,15.41,0" transform="translate(-52 0)"/><path class="cls-3" d="M55.69,19c2.05,0,2.05,1,4.1,1s2.05-1,4.1-1,2.05,1,4.1,1S70,19,72.1,19s2.05,1,4.11,1,2.05-1,4.11-1" transform="translate(-52 0)"/><path class="cls-3" d="M57.5,22.64c1.75,0,1.75.84,3.49,0.84s1.75-.84,3.5-0.84,1.75,0.84,3.5.84,1.75-.84,3.5-0.84,1.75,0.84,3.51.84,1.75-.84,3.51-0.84" transform="translate(-52 0)"/><path class="cls-3" d="M59.16,26.37c1.47,0,1.47.71,2.94,0.71s1.47-.71,2.95-0.71,1.47,0.71,2.95.71,1.47-.71,2.95-0.71,1.48,0.71,3,.71,1.48-.71,3-0.71" transform="translate(-52 0)"/><line class="cls-4" x1="16" y1="10.5" x2="16" y2="6.5"/><line class="cls-4" x1="24.46" y1="16.42" x2="28.22" y2="15.05"/><line class="cls-4" x1="7.54" y1="16.42" x2="3.78" y2="15.05"/><line class="cls-4" x1="10.84" y1="12.13" x2="8.54" y2="8.85"/><line class="cls-4" x1="21.16" y1="12.13" x2="23.46" y2="8.85"/></svg>