<svg id="events" xmlns="http://www.w3.org/2000/svg" xmlns:xlink="http://www.w3.org/1999/xlink" viewBox="0 0 32 32"><defs><style>.cls-1{fill:url(#Unbenannter_Verlauf_12);}.cls-2{fill:#fff;}.cls-3,.cls-4{stroke:#fff;stroke-linejoin:round;}.cls-3{fill:url(#Unbenannter_Verlauf_12-2);}.cls-4{fill:url(#Unbenannter_Verlauf_12-3);}</style><linearGradient id="Unbenannter_Verlauf_12" y1="16" x2="32" y2="16" gradientUnits="userSpaceOnUse"><stop offset="0" stop-color="#47735b"/><stop offset="0.23" stop-color="#507c60"/><stop offset="0.6" stop-color="#69966d"/><stop offset="0.99" stop-color="#8ab87f"/></linearGradient><linearGradient id="Unbenannter_Verlauf_12-2" x1="7.93" y1="7.51" x2="9.56" y2="7.51" xlink:href="#Unbenannter_Verlauf_12"/><linearGradient id="Unbenannter_Verlauf_12-3" x1="22.44" y1="7.51" x2="24.07" y2="7.51" xlink:href="#Unbenannter_Verlauf_12"/></defs><title>Events</title><rect class="cls-1" width="32" height="32" rx="4.25" ry="4.25"/><path class="cls-2" d="M56.87,58.91a1,1,0,0,0-1,1V77.35a1,1,0,0,0,1,1H79.13a1,1,0,0,0,1-1V59.91a1,1,0,0,0-1-1H56.87ZM79.13,77.35H56.87V63.92H79.13V77.35ZM56.87,59.91H79.13v3H56.87v-3Z" transform="translate(-52 -52)"/><rect class="cls-3" x="7.93" y="5.65" width="1.63" height="3.71" rx="0.81" ry="0.81"/><rect class="cls-4" x="22.44" y="5.65" width="1.62" height="3.71" rx="0.81" ry="0.81"/><polygon class="cls-2" points="16.21 14.24 17.44 16.74 20.2 17.14 18.2 19.08 18.67 21.83 16.21 20.53 13.74 21.83 14.21 19.08 12.22 17.14 14.97 16.74 16.21 14.24"/></svg>