<svg id="HikingBoot" xmlns="http://www.w3.org/2000/svg" xmlns:xlink="http://www.w3.org/1999/xlink" viewBox="0 0 32 32"><defs><style>.cls-1{fill:url(#Unbenannter_Verlauf_18);}.cls-2,.cls-3,.cls-4{fill:none;stroke:#fff;stroke-width:0.75px;}.cls-2,.cls-4{stroke-miterlimit:10;}.cls-3{stroke-linejoin:round;}.cls-4{stroke-linecap:round;}</style><linearGradient id="Unbenannter_Verlauf_18" y1="16" x2="32" y2="16" gradientUnits="userSpaceOnUse"><stop offset="0" stop-color="#2b32b2"/><stop offset="0.19" stop-color="#283bb5"/><stop offset="0.51" stop-color="#2255bd"/><stop offset="0.91" stop-color="#177ec9"/><stop offset="0.99" stop-color="#1488cc"/></linearGradient></defs><title>HikingBootWinter</title><rect class="cls-1" width="32" height="32" rx="4.25" ry="4.25"/><g id="hikingBoot-2" data-name="hikingBoot"><path class="cls-2" d="M4.75,16.65s5.17-1,5.17,5.14" transform="translate(0 0)"/><line class="cls-2" x1="21.13" y1="16.58" x2="21.13" y2="21.88"/><path class="cls-3" d="M26.76,21.86H4.89l0-12.64h6.16A9.87,9.87,0,0,0,13.66,13,11,11,0,0,0,16.16,15c0.9,0.49,3.18,1.79,8.76,1.9,0,0,1.83.15,1.83,5h1.33v2.53H27.33s-0.68,0-.85,0A5,5,0,0,0,25,23.7c-0.46,0-1,.84-1.42.84s-1.06-.84-1.51-0.84-0.91.84-1.36,0.84-1.06-.84-1.51-0.84-0.91.84-1.36,0.84-1.06-.84-1.51-0.84-0.91.87-1.36,0.84-1.1-.83-1.57-0.84a3.3,3.3,0,0,0-1.11.66,0.66,0.66,0,0,1-.22,0H3.93v-2.5h1" transform="translate(0 0)"/><line class="cls-4" x1="19.11" y1="15.86" x2="18.6" y2="17.86"/><circle class="cls-2" cx="18.38" cy="18.7" r="0.72" transform="translate(-1.45 1.55) rotate(-4.64)"/><line class="cls-4" x1="16.84" y1="15.03" x2="15.95" y2="16.96"/><circle class="cls-2" cx="15.59" cy="17.76" r="0.72" transform="translate(-0.48 0.43) rotate(-1.57)"/><line class="cls-4" x1="15.05" y1="13.9" x2="13.71" y2="15.68"/><circle class="cls-2" cx="13.14" cy="16.47" r="0.72"/><line class="cls-4" x1="13.52" y1="12.28" x2="11.94" y2="13.92"/><circle class="cls-2" cx="11.15" cy="14.54" r="0.72"/><polyline class="cls-3" points="4.91 9.22 3.93 9.22 3.93 7.41 12.22 7.41 12.22 9.22 11.07 9.22"/></g></svg>