<svg id="HikingBoot" xmlns="http://www.w3.org/2000/svg" xmlns:xlink="http://www.w3.org/1999/xlink" viewBox="0 0 32 32"><defs><style>.cls-1{fill:url(#Unbenannter_Verlauf_2);}.cls-2,.cls-3,.cls-4,.cls-5{fill:none;stroke:#fff;}.cls-2,.cls-4,.cls-5{stroke-miterlimit:10;}.cls-3{stroke-linejoin:round;}.cls-4{stroke-linecap:round;}.cls-5{stroke-width:0.75px;}</style><linearGradient id="Unbenannter_Verlauf_2" y1="121.59" x2="32" y2="121.59" gradientTransform="matrix(1, 0, 0, -1, 0, 137.59)" gradientUnits="userSpaceOnUse"><stop offset="0" stop-color="#47735b"/><stop offset="0.23" stop-color="#507c60"/><stop offset="0.6" stop-color="#69966d"/><stop offset="0.99" stop-color="#8ab87f"/></linearGradient></defs><title>HikingBoot</title><rect class="cls-1" width="32" height="32" rx="4.25" ry="4.25"/><g id="hikingBoot-2" data-name="hikingBoot"><path class="cls-2" d="M4.76,16.65s5.17-1,5.17,5.14"/><line class="cls-2" x1="21.14" y1="16.58" x2="21.14" y2="21.88"/><path class="cls-3" d="M26.77,21.86H4.9l0-12.64h6.16A9.87,9.87,0,0,0,13.67,13,11,11,0,0,0,16.18,15c0.9,0.49,3.18,1.79,8.76,1.9,0,0,1.83.15,1.83,5H28.1v2.53H27.34s-0.68,0-.85,0a5,5,0,0,0-1.43-.69c-0.46,0-1,.84-1.42.84s-1.06-.84-1.51-0.84-0.91.84-1.36,0.84-1.06-.84-1.51-0.84-0.91.84-1.36,0.84-1.06-.84-1.51-0.84-0.91.87-1.36,0.84-1.1-.83-1.57-0.84a3.3,3.3,0,0,0-1.11.66,0.66,0.66,0,0,1-.22,0H3.94v-2.5h1"/><line class="cls-4" x1="19.12" y1="15.86" x2="18.61" y2="17.86"/><circle class="cls-5" cx="18.39" cy="18.7" r="0.72" transform="translate(-1.45 1.55) rotate(-4.64)"/><line class="cls-4" x1="16.85" y1="15.03" x2="15.96" y2="16.96"/><circle class="cls-5" cx="15.61" cy="17.76" r="0.72" transform="translate(-0.48 0.43) rotate(-1.57)"/><line class="cls-4" x1="15.06" y1="13.9" x2="13.73" y2="15.68"/><circle class="cls-5" cx="13.15" cy="16.47" r="0.72"/><line class="cls-4" x1="13.53" y1="12.28" x2="11.96" y2="13.92"/><circle class="cls-5" cx="11.16" cy="14.54" r="0.72"/><polyline class="cls-3" points="4.92 9.22 3.94 9.22 3.94 7.41 12.23 7.41 12.23 9.22 11.08 9.22"/></g></svg>