<svg id="HikingBoot" xmlns="http://www.w3.org/2000/svg" xmlns:xlink="http://www.w3.org/1999/xlink" viewBox="0 0 32 32"><defs><style>.cls-1,.cls-3,.cls-4{fill:none;stroke-miterlimit:10;}.cls-1{stroke:#697ba1;}.cls-2{fill:url(#Unbenannter_Verlauf_3);}.cls-3,.cls-4{stroke:#fff;stroke-linecap:round;}.cls-4{stroke-width:0.75px;}</style><linearGradient id="Unbenannter_Verlauf_3" x1="52" y1="69.59" x2="84" y2="69.59" gradientTransform="matrix(1, 0, 0, -1, -52, 85.59)" gradientUnits="userSpaceOnUse"><stop offset="0" stop-color="#2b32b2"/><stop offset="0.19" stop-color="#283bb5"/><stop offset="0.51" stop-color="#2255bd"/><stop offset="0.91" stop-color="#177ec9"/><stop offset="0.99" stop-color="#1488cc"/></linearGradient></defs><title>KulturWinter</title><path class="cls-1" d="M70,74.59" transform="translate(-52 -52)"/><rect class="cls-2" width="32" height="32" rx="4.25" ry="4.25"/><g id="Book"><path class="cls-3" d="M77.5,58.48v18.4a1,1,0,0,1-1,1s-14.8.07-15.51,0a1.56,1.56,0,0,1-1.52-1.66A1.51,1.51,0,0,1,61,74.59H74.79a1,1,0,0,0,1-1V57.79a1,1,0,0,0-1-1H60.47a1,1,0,0,0-1,1V76.22" transform="translate(-52 -52)"/><line class="cls-4" x1="10.73" y1="24.22" x2="23.04" y2="24.22"/></g></svg>