<svg id="langlaufen" xmlns="http://www.w3.org/2000/svg" xmlns:xlink="http://www.w3.org/1999/xlink" viewBox="0 0 32 32"><defs><style>.cls-1{fill:url(#Unbenannter_Verlauf_3);}.cls-2{fill:#fff;}</style><linearGradient id="Unbenannter_Verlauf_3" y1="17.59" x2="32" y2="17.59" gradientTransform="matrix(1, 0, 0, -1, 0, 33.59)" gradientUnits="userSpaceOnUse"><stop offset="0" stop-color="#2b32b2"/><stop offset="0.19" stop-color="#283bb5"/><stop offset="0.51" stop-color="#2255bd"/><stop offset="0.91" stop-color="#177ec9"/><stop offset="0.99" stop-color="#1488cc"/></linearGradient></defs><title>langlaufen</title><rect class="cls-1" width="32" height="32" rx="4.25" ry="4.25"/><path class="cls-2" d="M28.28,130.29a1.22,1.22,0,0,1-1.23,1.21h-20v0.82H27a2,2,0,0,0,2.05-2H28.28Z" transform="translate(0 -104)"/><path class="cls-2" d="M22.31,111.69a2,2,0,1,0-2-2A2,2,0,0,0,22.31,111.69Z" transform="translate(0 -104)"/><path class="cls-2" d="M9.58,129l-6.68-6.7v1.17l6.22,6.24c0.71,0.77,1.94-.12,1.94-0.12l-0.59-.63a0.78,0.78,0,0,1-.88.06v0Z" transform="translate(0 -104)"/><rect class="cls-2" x="2.96" y="12.34" width="6.84" height="0.82"/><polygon class="cls-2" points="28.28 10.38 29.06 10.71 21.29 26.34 20.43 26.34 28.28 10.38"/><path class="cls-2" d="M15.4,113.18l-3.12,3.61a1,1,0,0,1-.78.37,1,1,0,0,1-.67-1.77l3.37-3.88a1,1,0,0,1,.78-0.37h4.88a1.32,1.32,0,0,1,.92.37l3.11,3.11,2.58-2.57a1,1,0,0,1,1.48,1.46l-3.11,3.13a1.13,1.13,0,0,1-1.7.14l-1.91-1.91-3,3.44L21,121a1.54,1.54,0,0,1,.25,1.6l-1.53,6.82a1.3,1.3,0,0,1-2.57-.26,1.18,1.18,0,0,1,0-.33l1.26-5.59-3.1-3-2.67,3a1.93,1.93,0,0,1-1.58.49H5.65a1.3,1.3,0,0,1-1.29-1,1.29,1.29,0,0,1,1.3-1.57h4.65l6.88-8H15.4Z" transform="translate(0 -104)"/></svg>