<?xml version="1.0" encoding="UTF-8"?>
<svg width="16px" height="16px" viewBox="0 0 16 16" version="1.1" xmlns="http://www.w3.org/2000/svg" xmlns:xlink="http://www.w3.org/1999/xlink">
    <!-- Generator: Sketch 47 (45396) - http://www.bohemiancoding.com/sketch -->
    <title>open_in_new - material</title>
    <desc>Created with Sketch.</desc>
    <defs></defs>
    <g id="Page-1" stroke="none" stroke-width="1" fill="none" fill-rule="evenodd">
        <path d="M9.78,0.5 L15.6,0.5 L15.6,6.32 L13.92,6.32 L13.92,3.36 L5.76,11.52 L4.58,10.34 L12.74,2.18 L9.78,2.18 L9.78,0.5 Z M13.92,13.82 L13.92,8 L15.6,8 L15.6,13.82 C15.6,14.2733356 15.433335,14.666665 15.1,15 C14.766665,15.333335 14.3733356,15.5 13.92,15.5 L2.28,15.5 C1.813331,15.5 1.4166683,15.333335 1.09,15 C0.7633317,14.666665 0.6,14.2733356 0.6,13.82 L0.6,2.18 C0.6,1.7266644 0.7633317,1.333335 1.09,1 C1.4166683,0.666665 1.813331,0.5 2.28,0.5 L8.1,0.5 L8.1,2.18 L2.28,2.18 L2.28,13.82 L13.92,13.82 Z" id="open_in_new---material" fill="#333333"></path>
    </g>
</svg>