<svg id="musicNote" xmlns="http://www.w3.org/2000/svg" xmlns:xlink="http://www.w3.org/1999/xlink" viewBox="0 0 32 32"><defs><style>.cls-1{fill:url(#Unbenannter_Verlauf_12);}.cls-2{fill:#fff;}</style><linearGradient id="Unbenannter_Verlauf_12" y1="16" x2="32" y2="16" gradientUnits="userSpaceOnUse"><stop offset="0" stop-color="#47735b"/><stop offset="0.23" stop-color="#507c60"/><stop offset="0.6" stop-color="#69966d"/><stop offset="0.99" stop-color="#8ab87f"/></linearGradient></defs><title>Schubertiade</title><rect class="cls-1" width="32" height="32" rx="4.25" ry="4.25"/><path class="cls-2" d="M26.61,67.78A5.27,5.27,0,0,1,24.71,65a0.49,0.49,0,0,0-.11-0.19,0.49,0.49,0,0,0-.43-0.27,0.5,0.5,0,0,0-.5.5V75.59a2.79,2.79,0,1,0,1.11,2.22L24.68,67.24a4.44,4.44,0,0,0,1.43,1.4,2.68,2.68,0,0,1,1.25,2.6,0.49,0.49,0,0,0,.5.48,0.51,0.51,0,0,0,.5-0.52A3.64,3.64,0,0,0,26.61,67.78Z" transform="translate(0 -52)"/><path class="cls-2" d="M17.74,56.22l-8.91,2.4a0.63,0.63,0,0,0-.52.61V70.4a2.83,2.83,0,1,0,1,2.16s0-7.43,0-11.19l8.25-2.23v8.71a2.83,2.83,0,1,0,1,2.16V56.67a0.5,0.5,0,0,0-.5-0.5A1.42,1.42,0,0,0,17.74,56.22ZM9.32,60.43c0-.46,0-0.81,0-1l8.25-2.22v1Z" transform="translate(0 -52)"/></svg>