<svg id="skis" xmlns="http://www.w3.org/2000/svg" xmlns:xlink="http://www.w3.org/1999/xlink" viewBox="0 0 32 32"><defs><style>.cls-1{fill:url(#Unbenannter_Verlauf_3);}.cls-2,.cls-3,.cls-4{fill:none;stroke:#fff;stroke-miterlimit:10;}.cls-2{stroke-width:0.87px;}.cls-3,.cls-4{stroke-linecap:round;}.cls-3{stroke-width:0.75px;}.cls-4{stroke-width:0.53px;}</style><linearGradient id="Unbenannter_Verlauf_3" x1="104" y1="69.59" x2="136" y2="69.59" gradientTransform="matrix(1, 0, 0, -1, -104, 85.59)" gradientUnits="userSpaceOnUse"><stop offset="0" stop-color="#2b32b2"/><stop offset="0.19" stop-color="#283bb5"/><stop offset="0.51" stop-color="#2255bd"/><stop offset="0.91" stop-color="#177ec9"/><stop offset="0.99" stop-color="#1488cc"/></linearGradient></defs><title>Skiing</title><rect class="cls-1" width="32" height="32" rx="4.25" ry="4.25"/><g id="rightSki"><path class="cls-2" d="M121.69,81.71a0.1,0.1,0,0,1-.1-0.1V55.79a1.27,1.27,0,0,1,.11-0.51,2.16,2.16,0,0,1,.73-1,2.16,2.16,0,0,1,.73,1,1.27,1.27,0,0,1,.11.51V81.61a0.1,0.1,0,0,1-.1.1h-1.47Z" transform="translate(-104 -52)"/><path class="cls-2" d="M121.59,67.06a0.89,0.89,0,0,1,1.67,0" transform="translate(-104 -52)"/><path class="cls-2" d="M123.26,72.25a0.89,0.89,0,0,1-1.67,0" transform="translate(-104 -52)"/></g><g id="rightSki-2" data-name="rightSki"><path class="cls-2" d="M116.08,81.71a0.1,0.1,0,0,1-.1-0.1V55.79a1.27,1.27,0,0,1,.11-0.51,2.16,2.16,0,0,1,.73-1,2.16,2.16,0,0,1,.73,1,1.27,1.27,0,0,1,.11.51V81.61a0.1,0.1,0,0,1-.1.1h-1.47Z" transform="translate(-104 -52)"/><path class="cls-2" d="M116,67.06a0.89,0.89,0,0,1,1.67,0" transform="translate(-104 -52)"/><path class="cls-2" d="M117.65,72.25a0.89,0.89,0,0,1-1.67,0" transform="translate(-104 -52)"/></g><g id="SkiPoleLeft"><line class="cls-3" x1="6.52" y1="8.83" x2="6.52" y2="26.75"/><line class="cls-3" x1="5.28" y1="25.5" x2="7.77" y2="25.5"/><rect class="cls-3" x="5.81" y="4.91" width="1.42" height="3.71" rx="0.46" ry="0.46"/><ellipse class="cls-4" cx="108.82" cy="58.01" rx="1.24" ry="0.46" transform="translate(-117.76 19.51) rotate(-34.34)"/></g><g id="SkiPoleLeft-2" data-name="SkiPoleLeft"><line class="cls-3" x1="24.81" y1="8.83" x2="24.81" y2="26.75"/><line class="cls-3" x1="26.05" y1="25.5" x2="23.56" y2="25.5"/><rect class="cls-3" x="128.1" y="56.91" width="1.42" height="3.71" rx="0.46" ry="0.46" transform="translate(153.61 65.52) rotate(-180)"/><ellipse class="cls-4" cx="130.51" cy="58.01" rx="0.46" ry="1.24" transform="translate(-95.02 81.04) rotate(-55.66)"/></g></svg>