<svg id="skis" xmlns="http://www.w3.org/2000/svg" xmlns:xlink="http://www.w3.org/1999/xlink" viewBox="0 0 32 32"><defs><style>.cls-1{fill:url(#Unbenannter_Verlauf_3);}.cls-2{fill:#fff;}</style><linearGradient id="Unbenannter_Verlauf_3" x1="156" y1="121.59" x2="188" y2="121.59" gradientTransform="matrix(1, 0, 0, -1, -156, 137.59)" gradientUnits="userSpaceOnUse"><stop offset="0" stop-color="#2b32b2"/><stop offset="0.19" stop-color="#283bb5"/><stop offset="0.51" stop-color="#2255bd"/><stop offset="0.91" stop-color="#177ec9"/><stop offset="0.99" stop-color="#1488cc"/></linearGradient></defs><title>skitouren</title><rect class="cls-1" width="32" height="32" rx="4.25" ry="4.25"/><path class="cls-2" d="M169.7,20.65l-2.32,5a1.08,1.08,0,0,1-2-.88l2.16-5a1.17,1.17,0,1,1,2.15.92Z" transform="translate(-156)"/><path class="cls-2" d="M167.66,7.72a0.66,0.66,0,0,0-1,.17L166,9a2.57,2.57,0,0,0-.36,1.29L165.83,16a0.75,0.75,0,0,0,.73.71h0.21a1,1,0,0,0,.9-0.67l1.77-6.2a1.1,1.1,0,0,0-.37-1.1Z" transform="translate(-156)"/><path class="cls-2" d="M181.56,27.54H160.74a0.5,0.5,0,1,1,0-1h20.82c0.56,0,1.09-.17,1.21-1.41a0.5,0.5,0,0,1,1,.09C183.59,27.13,182.47,27.54,181.56,27.54Z" transform="translate(-156)"/><path class="cls-2" d="M177.32,27.54a0.5,0.5,0,0,1,0-1c0.56,0,1.09-.17,1.21-1.41a0.5,0.5,0,0,1,1,.09C179.35,27.13,178.23,27.54,177.32,27.54Z" transform="translate(-156)"/><path class="cls-2" d="M172.78,8.73a2.14,2.14,0,0,0,.13-4.27A2.14,2.14,0,0,0,172.78,8.73Z" transform="translate(-156)"/><path class="cls-2" d="M179.81,13.71L172.1,9.5,172,9.44a1.34,1.34,0,0,0-1.7.62,1.66,1.66,0,0,0-.37.69L168.55,16a1.66,1.66,0,0,0,0,.65A1.46,1.46,0,0,0,169,18l3.76,3v4.14a1.17,1.17,0,1,0,2.33,0v-4.7a1.17,1.17,0,0,0-.34-0.82l0,0-2.93-2.92,1-4,5.77,2.39-2.25,10.63a0.5,0.5,0,0,0,.39.59h0.1a0.5,0.5,0,0,0,.49-0.4l2.25-10.61A0.86,0.86,0,0,0,179.81,13.71Z" transform="translate(-156)"/></svg>